<svg width="600" height="205" viewBox="0 0 600 205" fill="none" xmlns="http://www.w3.org/2000/svg">
<path d="M564.003 0.885818H551.993H455.996H432.01H413.945C410.665 0.885818 408.006 3.54502 408.006 6.82532V84.94V120.958V204.995L455.996 168.977V84.94V18.8256C455.996 15.5453 458.655 12.8861 461.935 12.8861H546.053C549.333 12.8861 551.993 15.5453 551.993 18.8256V106.768L468.006 60.922L600 168.977V144.976V132.958V6.82532C600 3.54502 597.341 0.885818 594.06 0.885818H564.003Z" fill="#2958FF"/>
<path d="M144.016 0.888229H51.9634C49.3917 0.888229 46.8895 1.72278 44.8327 3.26649L0.0116904 36.9064L0 168.962H47.9897L48.001 18.8275C48.0012 15.5474 50.6604 12.8885 53.9405 12.8885H138.076C141.357 12.8885 144.016 15.5477 144.016 18.828V157.027L192.006 123.009V6.82772C192.006 3.54743 189.346 0.888229 186.066 0.888229H168.002H144.016Z" fill="#2958FF"/>
<path d="M348.007 0.885818H255.97C253.399 0.885818 250.898 1.71991 248.841 3.26283L204.002 36.904V132.958V156.976V168.977L336.014 60.922L252.01 106.768V18.8255C252.01 15.5453 254.669 12.8861 257.949 12.8861H342.067C345.347 12.8861 348.007 15.5453 348.007 18.8255V123.219L395.996 87.2009V6.82533C395.996 3.54503 393.337 0.885818 390.057 0.885818H372.01H348.007Z" fill="#2958FF"/>
</svg>
